<?xml version="1.0" encoding="utf-8"?>
<!DOCTYPE svg PUBLIC "-//W3C//DTD SVG 20010904//EN" "http://www.w3.org/TR/2001/REC-SVG-20010904/DTD/svg10.dtd">
<svg version="1.0" xmlns="http://www.w3.org/2000/svg" width="759px" height="980px" viewBox="0 0 759 980" preserveAspectRatio="xMidYMid meet">
 <g fill="#000000">
  <path d="M49.5 979.3 c-21.8 -4.9 -39.1 -20.5 -46.3 -41.7 l-2.7 -8.1 0 -233 c0 -191.8 0.2 -234 1.3 -238.5 4.3 -17.6 16.6 -33 32.4 -40.9 13.1 -6.4 18.1 -7 61.1 -7.1 l36.7 0 0 -89.5 c0 -56 0.4 -93.2 1.1 -99.3 7.8 -71.9 47 -137.4 106.9 -178.4 31.1 -21.3 66.4 -35 105 -41 13.6 -2.1 59.7 -1.8 73.5 0.5 81 13.6 147.4 62.4 183.9 135.4 10.8 21.7 18.1 44.2 22.8 70.3 2.2 12.2 2.2 14.4 2.6 107.2 l0.3 94.6 40.2 0.4 40.2 0.4 8.1 2.7 c18.6 6.2 33.4 20.5 39.6 38.5 l2.3 6.7 0 237.5 0 237.5 -2.7 6.7 c-7 17.4 -19.2 29.6 -36.6 36.6 l-6.7 2.7 -330.5 0.1 c-181.8 0.1 -331.4 0 -332.5 -0.3z m482.5 -653.6 c0 -52.1 -0.4 -87.4 -1 -92.5 -6.2 -49.3 -36.9 -93.4 -81 -116.1 -23 -11.8 -39.2 -16 -65 -16.8 -14.8 -0.4 -19.4 -0.2 -29.5 1.5 -42.9 7.4 -80.2 32.1 -104 69.1 -9 13.9 -16.4 32.2 -20.8 51.3 -2 9 -2.1 11.8 -2.4 98.6 l-0.4 89.2 152.1 0 152 0 0 -84.3z"/>
 </g>
 <g fill="#ffffff">
  <path d="M34.8 974.4 c-3.9 -2.1 -3.5 -2.8 0.5 -0.8 3.7 1.9 4.4 2.4 3.1 2.4 -0.5 -0.1 -2.1 -0.8 -3.6 -1.6z"/>
  <path d="M24.4 967.4 l-3.9 -3.5 4.3 3.2 c3.8 3 4.8 3.9 3.9 3.9 -0.2 0 -2.1 -1.6 -4.3 -3.6z"/>
  <path d="M746.5 955.5 c4.7 -6.3 5.3 -6.9 2.9 -2.7 -1 1.8 -3 4.3 -4.3 5.5 -1.4 1.3 -0.8 0.1 1.4 -2.8z"/>
  <path d="M7 946.9 c-1.2 -2.3 -2 -4.3 -1.8 -4.5 0.3 -0.2 1.4 1.7 2.6 4.1 2.7 5.6 2 6 -0.8 0.4z"/>
  <path d="M0.5 695 c0 -125.1 0.1 -176.3 0.2 -113.7 0.2 62.5 0.2 164.9 0 227.5 -0.1 62.5 -0.2 11.3 -0.2 -113.8z"/>
  <path d="M752.2 444.5 c-1.2 -2.5 -2 -4.5 -1.7 -4.5 0.7 0 4.7 8.1 4.3 8.6 -0.3 0.2 -1.4 -1.7 -2.6 -4.1z"/>
  <path d="M11.1 437 c1.6 -3.2 12.7 -14.3 15.9 -15.9 2 -1 1.9 -0.8 -0.5 1 -3.9 2.9 -11.5 10.5 -14.4 14.4 -1.8 2.4 -2 2.5 -1 0.5z"/>
  <path d="M75.8 410.3 c10.6 -0.2 27.7 -0.2 38 0 10.3 0.1 1.6 0.2 -19.3 0.2 -20.9 0 -29.3 -0.1 -18.7 -0.2z"/>
  <path d="M227.2 329.3 l0.3 -81.8 0.2 81.3 0.3 81.2 152 0 152 0 0.3 -82.7 0.2 -82.8 0.3 83.3 0.2 83.2 -153 0 -153 0 0.2 -81.7z"/>
  <path d="M646.3 410.3 c10.4 -0.2 27 -0.2 37 0 10 0.1 1.6 0.2 -18.8 0.2 -20.3 0 -28.5 -0.1 -18.2 -0.2z"/>
  <path d="M627.3 233.5 c0 -2.7 0.2 -3.8 0.4 -2.2 0.2 1.5 0.2 3.7 0 5 -0.2 1.2 -0.4 0 -0.4 -2.8z"/>
  <path d="M132.3 231 c0 -2.5 0.2 -3.5 0.4 -2.2 0.2 1.2 0.2 3.2 0 4.5 -0.2 1.2 -0.4 0.2 -0.4 -2.3z"/>
  <path d="M493.9 151.3 l-3.4 -3.8 3.8 3.4 c2 1.9 3.7 3.6 3.7 3.8 0 0.8 -0.8 0 -4.1 -3.4z"/>
  <path d="M267 149.8 c4.1 -4.5 5 -5.3 5 -4.5 0 0.2 -2.1 2.3 -4.7 4.7 l-4.8 4.5 4.5 -4.7z"/>
  <path d="M607.2 149.5 c-1.7 -3.7 -1.4 -4.5 0.4 -1.2 0.9 1.6 1.4 3.1 1.1 3.3 -0.2 0.2 -0.9 -0.7 -1.5 -2.1z"/>
  <path d="M277 139.8 c4.1 -4.5 5 -5.3 5 -4.5 0 0.2 -2.1 2.3 -4.7 4.7 l-4.8 4.5 4.5 -4.7z"/>
  <path d="M156 140.6 c0 -1.1 3 -6.6 3.6 -6.6 0.2 0 -0.3 1.5 -1.2 3.3 -1.9 3.6 -2.4 4.4 -2.4 3.3z"/>
  <path d="M477.5 135.3 c-3.6 -3.3 -4.4 -4.4 -2 -2.5 3.8 2.8 9.3 8.3 8.4 8.2 -0.2 -0.1 -3.1 -2.6 -6.4 -5.7z"/>
  <path d="M467.5 127.4 l-3 -2.6 3.3 2.2 c1.7 1.2 3.2 2.3 3.2 2.6 0 0.7 -0.4 0.5 -3.5 -2.2z"/>
  <path d="M306 118.5 c0 -0.7 8.1 -4.7 8.6 -4.3 0.2 0.3 -1.7 1.4 -4.1 2.6 -2.5 1.2 -4.5 2 -4.5 1.7z"/>
  <path d="M447 115.5 c-3.6 -1.9 -6.1 -3.4 -5.7 -3.5 1 0 12.7 5.9 12.7 6.5 0 0.7 0.2 0.8 -7 -3z"/>
  <path d="M169.9 115.5 c0.5 -1.1 1.7 -2.9 2.6 -4 l1.6 -2 -1 2 c-0.5 1.1 -1.7 2.9 -2.6 4 l-1.6 2 1 -2z"/>
  <path d="M176 106 c1.2 -1.6 2.4 -3 2.6 -3 0.3 0 -0.4 1.4 -1.6 3 -1.2 1.7 -2.4 3 -2.6 3 -0.3 0 0.4 -1.3 1.6 -3z"/>
  <path d="M374.8 99.3 c2.8 -0.2 7.6 -0.2 10.5 0 2.8 0.2 0.5 0.3 -5.3 0.3 -5.8 0 -8.1 -0.1 -5.2 -0.3z"/>
  <path d="M573.4 93.3 c-2.1 -2.6 -3.3 -4.4 -2.7 -4 1.4 0.9 7.7 8.7 7 8.7 -0.3 0 -2.2 -2.1 -4.3 -4.7z"/>
  <path d="M192 85.5 c1.9 -1.9 3.6 -3.5 3.9 -3.5 0.3 0 -1 1.6 -2.9 3.5 -1.9 1.9 -3.6 3.5 -3.9 3.5 -0.3 0 1 -1.6 2.9 -3.5z"/>
  <path d="M566.4 84.8 l-2.9 -3.3 3.3 2.9 c1.7 1.7 3.2 3.1 3.2 3.3 0 0.8 -0.8 0.1 -3.6 -2.9z"/>
  <path d="M204 72.5 c4.7 -4.7 8.7 -8.5 9 -8.5 0.2 0 -3.3 3.8 -8 8.5 -4.7 4.7 -8.7 8.5 -9 8.5 -0.2 0 3.3 -3.8 8 -8.5z"/>
  <path d="M555 72.3 l-8.5 -8.8 8.8 8.5 c8.1 7.9 9.2 9 8.4 9 -0.1 0 -4.1 -3.9 -8.7 -8.7z"/>
  <path d="M217 60.5 c1.9 -1.9 3.6 -3.5 3.9 -3.5 0.3 0 -1 1.6 -2.9 3.5 -1.9 1.9 -3.6 3.5 -3.9 3.5 -0.3 0 1 -1.6 2.9 -3.5z"/>
  <path d="M541.4 59.8 l-2.9 -3.3 3.3 2.9 c1.7 1.7 3.2 3.1 3.2 3.3 0 0.8 -0.8 0.1 -3.6 -2.9z"/>
  <path d="M227.4 52.2 c0.8 -1.3 6.6 -5.6 6.6 -4.9 0 0.3 -1.7 1.7 -3.7 3.3 -2 1.5 -3.3 2.3 -2.9 1.6z"/>
  <path d="M529 49.9 c-3.5 -3.1 -3.5 -3.1 -0.3 -0.9 1.8 1.1 3.5 2.5 3.8 3 1 1.6 0.2 1.1 -3.5 -2.1z"/>
  <path d="M235 46.6 c0 -0.2 1.4 -1.4 3 -2.6 1.7 -1.2 3 -1.9 3 -1.6 0 0.2 -1.3 1.4 -3 2.6 -1.6 1.2 -3 1.9 -3 1.6z"/>
  <path d="M246.5 38.5 c1.1 -0.9 2.9 -2.1 4 -2.6 l2 -1 -2 1.6 c-1.1 0.9 -2.9 2.1 -4 2.6 l-2 1 2 -1.6z"/>
  <path d="M260 30.5 c0 -0.7 14.1 -7.7 14.6 -7.3 0.2 0.2 -3 2.1 -7.1 4.1 -4.1 2 -7.5 3.5 -7.5 3.2z"/>
  <path d="M491 26.5 c-4.7 -2.4 -8.2 -4.4 -7.7 -4.4 1 -0.1 16.7 7.8 16.7 8.4 0 0.7 0.4 0.9 -9 -4z"/>
  <path d="M359.3 0.3 c0.9 -0.2 2.5 -0.2 3.5 0 0.9 0.3 0.1 0.5 -1.8 0.5 -1.9 0 -2.7 -0.2 -1.7 -0.5z"/>
  <path d="M397.3 0.3 c0.9 -0.2 2.5 -0.2 3.5 0 0.9 0.3 0.1 0.5 -1.8 0.5 -1.9 0 -2.7 -0.2 -1.7 -0.5z"/>
 </g>
</svg>