<?xml version="1.0" encoding="utf-8"?>
<!DOCTYPE svg PUBLIC "-//W3C//DTD SVG 20010904//EN" "http://www.w3.org/TR/2001/REC-SVG-20010904/DTD/svg10.dtd">
<svg version="1.0" xmlns="http://www.w3.org/2000/svg" width="600px" height="600px" viewBox="0 0 600 600" preserveAspectRatio="xMidYMid meet">
 <g fill="#000000">
  <path d="M245.5 510.9 c-75.7 -4.9 -130.1 -17 -153.6 -34.3 -9 -6.5 -8.9 -5.9 -8.9 -46.5 0 -37.9 0.6 -44.1 5.5 -55.9 1.4 -3.5 3.6 -8 4.9 -10 1.3 -2.1 2.5 -4.2 2.7 -4.9 0.2 -0.7 3.2 -4.4 6.7 -8.2 10.1 -11.3 22.5 -19.2 37.7 -24.2 6.4 -2 9.3 -2.3 33.2 -2.7 l26.1 -0.4 6.8 5.7 c18.5 15.7 44.6 27.7 69.8 32 12.9 2.2 35.6 2 49.3 -0.5 24.6 -4.4 48.4 -15.5 67.7 -31.5 l7 -5.7 26 0.4 c26 0.4 26.1 0.4 35.4 3.5 12.5 4.2 22.2 10.1 31.3 19.2 8.7 8.7 14.5 17.1 18.3 26.7 5.1 12.7 5.6 17.5 5.6 56.8 l0 36.3 -3 4.2 c-14.1 19.5 -75.1 34.6 -161.5 40.1 -18.2 1.1 -88.9 1.1 -107 -0.1z"/>
  <path d="M285.5 343.9 c-36.3 -3.8 -71.3 -25.1 -91.9 -55.9 -14.5 -21.6 -21.7 -45.3 -21.7 -71.7 0 -21.7 3.8 -37.9 13.1 -56.8 7.6 -15.2 12 -21.4 24.5 -34 17.2 -17.4 36.8 -28.4 61.5 -34.6 12 -2.9 37 -3.7 49.7 -1.5 25.2 4.4 49 16.1 67.5 33.2 5 4.6 14.9 16.6 19.9 23.9 2.6 4 10.8 19.3 11.4 21.5 0.1 0.3 1.3 4.3 2.8 8.9 5.7 17.6 7.5 40 4.8 59 -2.5 17.4 -11.4 39.3 -21.8 53.9 -22.4 31.3 -54.8 50.3 -92.4 54.2 -11.3 1.1 -15.8 1.1 -27.4 -0.1z"/>
 </g>
 <g fill="#ffffff">
  <path d="M259.7 511.3 c1.8 -0.2 5 -0.2 7 0 2.1 0.2 0.7 0.4 -3.2 0.4 -3.8 0 -5.5 -0.2 -3.8 -0.4z"/>
  <path d="M332.7 511.3 c1.8 -0.2 5 -0.2 7 0 2.1 0.2 0.7 0.4 -3.2 0.4 -3.8 0 -5.5 -0.2 -3.8 -0.4z"/>
  <path d="M241.8 510.3 c1.2 -0.2 3.2 -0.2 4.5 0 1.2 0.2 0.2 0.4 -2.3 0.4 -2.5 0 -3.5 -0.2 -2.2 -0.4z"/>
  <path d="M353.8 510.3 c1.2 -0.2 3.2 -0.2 4.5 0 1.2 0.2 0.2 0.4 -2.3 0.4 -2.5 0 -3.5 -0.2 -2.2 -0.4z"/>
  <path d="M227.3 509.3 c0.9 -0.2 2.5 -0.2 3.5 0 0.9 0.3 0.1 0.5 -1.8 0.5 -1.9 0 -2.7 -0.2 -1.7 -0.5z"/>
  <path d="M369.3 509.3 c0.9 -0.2 2.5 -0.2 3.5 0 0.9 0.3 0.1 0.5 -1.8 0.5 -1.9 0 -2.7 -0.2 -1.7 -0.5z"/>
  <path d="M508 476.7 c0 -0.2 1.5 -1.6 3.3 -3.3 l3.2 -2.9 -2.9 3.3 c-2.8 3 -3.6 3.7 -3.6 2.9z"/>
  <path d="M88.1 473.9 c-1.3 -1.1 -2.2 -2.2 -1.9 -2.4 0.2 -0.3 1.5 0.6 2.8 2 2.8 3 2.4 3.2 -0.9 0.4z"/>
  <path d="M83.2 396 c0 -1.9 0.2 -2.7 0.5 -1.7 0.2 0.9 0.2 2.5 0 3.5 -0.3 0.9 -0.5 0.1 -0.5 -1.8z"/>
  <path d="M293.8 363.3 c3.4 -0.2 9 -0.2 12.5 0 3.4 0.2 0.6 0.3 -6.3 0.3 -6.9 0 -9.7 -0.1 -6.2 -0.3z"/>
  <path d="M106 347.5 c3 -3 5.7 -5.5 5.9 -5.5 0.3 0 -1.9 2.5 -4.9 5.5 -3 3 -5.7 5.5 -5.9 5.5 -0.3 0 1.9 -2.5 4.9 -5.5z"/>
  <path d="M296.3 344.3 c2 -0.2 5.4 -0.2 7.5 0 2 0.2 0.3 0.4 -3.8 0.4 -4.1 0 -5.8 -0.2 -3.7 -0.4z"/>
  <path d="M202.5 327 c-1.7 -1.8 -3.3 -2 -25.9 -2.3 l-24.1 -0.2 24.1 -0.3 24.1 -0.2 2.3 2.5 c1.3 1.4 2.1 2.5 1.8 2.5 -0.3 0 -1.3 -0.9 -2.3 -2z"/>
  <path d="M411.8 324.3 c6.8 -0.2 17.6 -0.2 24 0 6.4 0.1 0.9 0.3 -12.3 0.3 -13.2 0 -18.5 -0.2 -11.7 -0.3z"/>
  <path d="M202.4 299.8 l-2.9 -3.3 3.3 2.9 c1.7 1.7 3.2 3.1 3.2 3.3 0 0.8 -0.8 0.1 -3.6 -2.9z"/>
  <path d="M428.3 216 c0 -3 0.2 -4.3 0.4 -2.7 0.2 1.5 0.2 3.9 0 5.5 -0.2 1.5 -0.4 0.2 -0.4 -2.8z"/>
  <path d="M209 125.5 c3.5 -3.6 6.7 -6.5 6.9 -6.5 0.3 0 -2.4 2.9 -5.9 6.5 -3.5 3.6 -6.7 6.5 -6.9 6.5 -0.3 0 2.4 -2.9 5.9 -6.5z"/>
  <path d="M389.5 124.8 c-4.9 -5 -5.5 -5.9 -2 -2.8 4.7 4.2 10.1 10 9.3 10 -0.2 0 -3.5 -3.2 -7.3 -7.2z"/>
  <path d="M286.3 88.3 c0.9 -0.2 2.5 -0.2 3.5 0 0.9 0.3 0.1 0.5 -1.8 0.5 -1.9 0 -2.7 -0.2 -1.7 -0.5z"/>
 </g>
</svg>